<?xml version="1.0" encoding="UTF-8"?>
<svg height="600" width="800" xmlns="http://www.w3.org/2000/svg" xmlns:xlink="http://www.w3.org/1999/xlink">
    <g id="Notes" font-family="'LucidaGrande', 'Lucida Grande', sans-serif" font-size="13">
        <rect fill="white" height="600.0" width="800.0" x="0.0" y="0.0" />
        <g font-size="13">
            <text x="18.0" y="176.0">Small</text>
            <text x="18.0" y="376.0">Medium</text>
            <text x="18.0" y="576.0">Large</text>
        </g>
        <g font-size="9">
            <text x="250.0" y="30.0">Ultralight</text>
            <text x="450.0" y="30.0">Regular</text>
            <text x="650.0" y="30.0">Black</text>
            <text id="template-version" fill="#505050" text-anchor="end" x="785.0" y="575.0">Template v.3.0</text>
            <a href="https://wangchujiang.com/#/app">
                <text fill="#505050" text-anchor="end" x="785.0" y="590.0">https://wangchujiang.com/#/app</text>
            </a>
        </g>
    </g>
    <g id="Guides" stroke="rgb(39, 170, 225)" stroke-width="0.5">
        <path id="Capline-S" d="M18,76 l800,0" />
        <path id="H-reference" d="M85,145.755 L87.685,145.755 L113.369,79.287 L114.052,79.287 L114.052,76 L112.148,76 L85,145.755 Z M95.693,121.536 L130.996,121.536 L130.263,119.313 L96.474,119.313 L95.693,121.536 Z M139.15,145.755 L141.787,145.755 L114.638,76 L113.466,76 L113.466,79.287 L139.15,145.755 Z" stroke="none" />
        <path id="Baseline-S" d="M18,146 l800,0" />
        <path id="left-margin-Ultralight-S" d="M218.646,56 l0,110" />
        <path id="right-margin-Ultralight-S" d="M311.354,56 l0,110" />
        <path id="left-margin-Regular-S" d="M418.646,56 l0,110" />
        <path id="right-margin-Regular-S" d="M511.354,56 l0,110" />
        <path id="left-margin-Black-S" d="M618.646,56 l0,110" />
        <path id="right-margin-Black-S" d="M711.354,56 l0,110" />
        <path id="Capline-M" d="M18,276 l800,0" />
        <path id="Baseline-M" d="M18,346 l800,0" />
        <path id="Capline-L" d="M18,476 l800,0" />
        <path id="Baseline-L" d="M18,546 l800,0" />
    </g>
    <g id="Symbols">
        <g id="Ultralight-S">
            <path d="M261.243,82.643 L261.243,87.004 L248.3,87.004 C247.159,87.004 246.162,87.974 246.162,89.142 C246.162,90.34 247.159,91.309 248.3,91.309 L251.69,91.309 L251.796,93.516 L234.063,93.516 C230.727,93.516 228.646,95.711 228.646,99.189 L228.646,103.522 C228.646,106.592 230.134,108.662 232.894,109.106 L232.894,137.505 C232.894,143.121 235.887,146 241.503,146 L272.777,146 C277.686,146 280.591,143.779 281.245,139.489 L286.843,139.489 C290.92,139.489 293.657,136.837 293.857,132.761 L295.826,91.309 L299.245,91.309 C300.414,91.309 301.354,90.311 301.354,89.142 C301.354,87.974 300.414,87.004 299.245,87.004 L286.216,87.004 L286.216,82.643 C286.216,78.509 283.536,76 279.146,76 L268.313,76 C263.922,76 261.243,78.509 261.243,82.643 Z M265.776,82.928 C265.776,81.303 266.916,80.248 268.626,80.248 L278.832,80.248 C280.543,80.248 281.683,81.303 281.683,82.928 L281.683,87.004 L265.776,87.004 L265.776,82.928 Z M281.387,135.184 L281.387,109.106 C284.147,108.662 285.635,106.592 285.635,103.522 L285.635,99.189 C285.635,95.711 283.725,93.516 280.218,93.516 L256.274,93.516 L256.166,91.309 L291.237,91.309 L289.352,132.276 C289.295,133.987 288.069,135.184 286.387,135.184 L281.387,135.184 Z M276.797,109.195 L276.797,137.733 C276.797,140.298 275.372,141.695 272.834,141.695 L241.446,141.695 C238.88,141.695 237.484,140.298 237.484,137.733 L237.484,109.195 L276.797,109.195 Z M266.562,120.684 C267.76,120.684 268.615,119.858 268.615,118.603 L268.615,117.691 C268.615,116.437 267.76,115.638 266.562,115.638 L247.747,115.638 C246.549,115.638 245.723,116.437 245.723,117.691 L245.723,118.603 C245.723,119.858 246.549,120.684 247.747,120.684 L266.562,120.684 Z M233.236,102.867 L233.236,99.845 C233.236,98.419 233.806,97.82 235.231,97.82 L279.078,97.82 C280.503,97.82 281.045,98.419 281.045,99.845 L281.045,102.867 C281.045,104.292 280.503,104.891 279.078,104.891 L235.231,104.891 C233.806,104.891 233.236,104.292 233.236,102.867 Z" />
        </g>
        <g id="Regular-S">
            <path d="M461.243,82.643 L461.243,87.004 L448.3,87.004 C447.159,87.004 446.162,87.974 446.162,89.142 C446.162,90.34 447.159,91.309 448.3,91.309 L451.69,91.309 L451.796,93.516 L434.063,93.516 C430.727,93.516 428.646,95.711 428.646,99.189 L428.646,103.522 C428.646,106.592 430.134,108.662 432.894,109.106 L432.894,137.505 C432.894,143.121 435.887,146 441.503,146 L472.777,146 C477.686,146 480.591,143.779 481.245,139.489 L486.843,139.489 C490.92,139.489 493.657,136.837 493.857,132.761 L495.826,91.309 L499.245,91.309 C500.414,91.309 501.354,90.311 501.354,89.142 C501.354,87.974 500.414,87.004 499.245,87.004 L486.216,87.004 L486.216,82.643 C486.216,78.509 483.536,76 479.146,76 L468.313,76 C463.923,76 461.243,78.509 461.243,82.643 Z M465.776,82.928 C465.776,81.303 466.916,80.248 468.626,80.248 L478.832,80.248 C480.543,80.248 481.683,81.303 481.683,82.928 L481.683,87.004 L465.776,87.004 L465.776,82.928 Z M481.387,135.184 L481.387,109.106 C484.147,108.662 485.635,106.592 485.635,103.522 L485.635,99.189 C485.635,95.711 483.725,93.516 480.218,93.516 L456.274,93.516 L456.166,91.309 L491.237,91.309 L489.352,132.276 C489.295,133.987 488.069,135.184 486.387,135.184 L481.387,135.184 Z M476.797,109.195 L476.797,137.733 C476.797,140.298 475.372,141.695 472.834,141.695 L441.446,141.695 C438.88,141.695 437.484,140.298 437.484,137.733 L437.484,109.195 L476.797,109.195 Z M466.562,120.684 C467.76,120.684 468.615,119.858 468.615,118.603 L468.615,117.691 C468.615,116.437 467.76,115.638 466.562,115.638 L447.747,115.638 C446.549,115.638 445.723,116.437 445.723,117.691 L445.723,118.603 C445.723,119.858 446.549,120.684 447.747,120.684 L466.562,120.684 Z M433.236,102.867 L433.236,99.845 C433.236,98.419 433.806,97.82 435.231,97.82 L479.078,97.82 C480.503,97.82 481.045,98.419 481.045,99.845 L481.045,102.867 C481.045,104.292 480.503,104.891 479.078,104.891 L435.231,104.891 C433.806,104.891 433.236,104.292 433.236,102.867 Z" />
        </g>
        <g id="Black-S">
            <path d="M661.243,82.643 L661.243,87.004 L648.3,87.004 C647.159,87.004 646.162,87.974 646.162,89.142 C646.162,90.34 647.159,91.309 648.3,91.309 L651.69,91.309 L651.796,93.516 L634.062,93.516 C630.727,93.516 628.646,95.711 628.646,99.189 L628.646,103.522 C628.646,106.592 630.134,108.662 632.894,109.106 L632.894,137.505 C632.894,143.121 635.887,146 641.503,146 L672.777,146 C677.686,146 680.591,143.779 681.245,139.489 L686.843,139.489 C690.92,139.489 693.657,136.837 693.857,132.761 L695.826,91.309 L699.245,91.309 C700.414,91.309 701.354,90.311 701.354,89.142 C701.354,87.974 700.414,87.004 699.245,87.004 L686.216,87.004 L686.216,82.643 C686.216,78.509 683.536,76 679.146,76 L668.313,76 C663.922,76 661.243,78.509 661.243,82.643 Z M665.776,82.928 C665.776,81.303 666.916,80.248 668.626,80.248 L678.832,80.248 C680.543,80.248 681.683,81.303 681.683,82.928 L681.683,87.004 L665.776,87.004 L665.776,82.928 Z M681.387,135.184 L681.387,109.106 C684.147,108.662 685.635,106.592 685.635,103.522 L685.635,99.189 C685.635,95.711 683.725,93.516 680.218,93.516 L656.274,93.516 L656.166,91.309 L691.237,91.309 L689.352,132.276 C689.295,133.987 688.069,135.184 686.387,135.184 L681.387,135.184 Z M676.797,109.195 L676.797,137.733 C676.797,140.298 675.372,141.695 672.834,141.695 L641.446,141.695 C638.88,141.695 637.484,140.298 637.484,137.733 L637.484,109.195 L676.797,109.195 Z M666.562,120.684 C667.76,120.684 668.615,119.858 668.615,118.603 L668.615,117.691 C668.615,116.437 667.76,115.638 666.562,115.638 L647.747,115.638 C646.549,115.638 645.723,116.437 645.723,117.691 L645.723,118.603 C645.723,119.858 646.549,120.684 647.747,120.684 L666.562,120.684 Z M633.236,102.867 L633.236,99.845 C633.236,98.419 633.806,97.82 635.231,97.82 L679.078,97.82 C680.503,97.82 681.045,98.419 681.045,99.845 L681.045,102.867 C681.045,104.292 680.503,104.891 679.078,104.891 L635.231,104.891 C633.806,104.891 633.236,104.292 633.236,102.867 Z" />
        </g>
    </g>
</svg>