<?xml version="1.0" encoding="UTF-8"?>
<svg height="600" width="800" xmlns="http://www.w3.org/2000/svg" xmlns:xlink="http://www.w3.org/1999/xlink">
    <g id="Notes" font-family="'LucidaGrande', 'Lucida Grande', sans-serif" font-size="13">
        <rect fill="white" height="600.0" width="800.0" x="0.0" y="0.0" />
        <g font-size="13">
            <text x="18.0" y="176.0">Small</text>
            <text x="18.0" y="376.0">Medium</text>
            <text x="18.0" y="576.0">Large</text>
        </g>
        <g font-size="9">
            <text x="250.0" y="30.0">Ultralight</text>
            <text x="450.0" y="30.0">Regular</text>
            <text x="650.0" y="30.0">Black</text>
            <text id="template-version" fill="#505050" text-anchor="end" x="785.0" y="575.0">Template v.3.0</text>
            <a href="https://wangchujiang.com/#/app">
                <text fill="#505050" text-anchor="end" x="785.0" y="590.0">https://wangchujiang.com/#/app</text>
            </a>
        </g>
    </g>
    <g id="Guides" stroke="rgb(39, 170, 225)" stroke-width="0.5">
        <path id="Capline-S" d="M18,76 l800,0" />
        <path id="H-reference" d="M85,145.755 L87.685,145.755 L113.369,79.287 L114.052,79.287 L114.052,76 L112.148,76 L85,145.755 Z M95.693,121.536 L130.996,121.536 L130.263,119.313 L96.474,119.313 L95.693,121.536 Z M139.15,145.755 L141.787,145.755 L114.638,76 L113.466,76 L113.466,79.287 L139.15,145.755 Z" stroke="none" />
        <path id="Baseline-S" d="M18,146 l800,0" />
        <path id="left-margin-Ultralight-S" d="M221,56 l0,110" />
        <path id="right-margin-Ultralight-S" d="M309,56 l0,110" />
        <path id="left-margin-Regular-S" d="M421,56 l0,110" />
        <path id="right-margin-Regular-S" d="M509,56 l0,110" />
        <path id="left-margin-Black-S" d="M621,56 l0,110" />
        <path id="right-margin-Black-S" d="M709,56 l0,110" />
        <path id="Capline-M" d="M18,276 l800,0" />
        <path id="Baseline-M" d="M18,346 l800,0" />
        <path id="Capline-L" d="M18,476 l800,0" />
        <path id="Baseline-L" d="M18,546 l800,0" />
    </g>
    <g id="Symbols">
        <g id="Ultralight-S">
            <path d="M280.339,131.447 L283.062,131.447 C288.995,131.447 292.157,128.375 292.157,122.472 L292.157,92.47 C295.073,92.001 296.645,89.814 296.645,86.571 L296.645,81.993 C296.645,78.319 294.627,76 290.922,76 L242.162,76 C238.638,76 236.439,78.319 236.439,81.993 L236.439,86.571 C236.439,86.705 236.442,86.836 236.447,86.966 C234.389,88.509 233.355,91.092 233.355,94.709 L233.355,136.543 C233.355,142.838 236.457,146 242.692,146 L271.002,146 C277.237,146 280.339,142.808 280.339,136.543 L280.339,131.447 Z M265.255,92.565 L287.308,92.565 L287.308,122.713 C287.308,125.424 285.803,126.899 283.122,126.899 L280.339,126.899 L280.339,113.021 C280.339,109.166 279.887,107.479 277.478,105.01 L265.255,92.565 Z M241.288,85.311 L241.288,82.686 C241.288,81.18 241.89,80.548 243.396,80.548 L289.718,80.548 C291.224,80.548 291.796,81.18 291.796,82.686 L291.796,85.879 C291.796,87.385 291.224,88.017 289.718,88.017 L260.788,88.017 C258.541,85.75 256.65,85.252 253.323,85.252 L242.692,85.252 C242.205,85.252 241.737,85.272 241.288,85.311 Z M261.102,88.336 L261.112,88.336 L261.112,88.346 L261.102,88.336 Z M238.204,94.77 C238.204,91.818 239.8,90.101 242.933,90.101 L252.811,90.101 L252.811,107.57 C252.811,111.364 254.739,113.262 258.473,113.262 L275.49,113.262 L275.49,136.453 C275.49,139.465 273.864,141.151 270.762,141.151 L242.902,141.151 C239.8,141.151 238.204,139.465 238.204,136.453 L238.204,94.77 Z M257.359,107.028 L257.359,91.216 L274.556,108.714 L259.046,108.714 C257.841,108.714 257.359,108.232 257.359,107.028 Z" />
        </g>
        <g id="Regular-S">
            <path d="M480.339,131.447 L483.062,131.447 C488.995,131.447 492.157,128.375 492.157,122.472 L492.157,92.47 C495.073,92.001 496.645,89.814 496.645,86.571 L496.645,81.993 C496.645,78.319 494.627,76 490.922,76 L442.161,76 C438.638,76 436.439,78.319 436.439,81.993 L436.439,86.571 C436.439,86.705 436.442,86.836 436.447,86.966 C434.389,88.509 433.355,91.092 433.355,94.709 L433.355,136.543 C433.355,142.838 436.457,146 442.692,146 L471.002,146 C477.237,146 480.339,142.808 480.339,136.543 L480.339,131.447 Z M465.255,92.565 L487.308,92.565 L487.308,122.713 C487.308,125.424 485.803,126.899 483.122,126.899 L480.339,126.899 L480.339,113.021 C480.339,109.166 479.887,107.479 477.478,105.01 L465.255,92.565 Z M441.288,85.311 L441.288,82.686 C441.288,81.18 441.89,80.548 443.396,80.548 L489.718,80.548 C491.224,80.548 491.796,81.18 491.796,82.686 L491.796,85.879 C491.796,87.385 491.224,88.017 489.718,88.017 L460.788,88.017 C458.541,85.75 456.65,85.252 453.323,85.252 L442.692,85.252 C442.205,85.252 441.737,85.272 441.288,85.311 Z M461.102,88.336 L461.112,88.336 L461.112,88.346 L461.102,88.336 Z M438.204,94.77 C438.204,91.818 439.8,90.101 442.933,90.101 L452.811,90.101 L452.811,107.57 C452.811,111.364 454.739,113.262 458.473,113.262 L475.49,113.262 L475.49,136.453 C475.49,139.465 473.864,141.151 470.762,141.151 L442.902,141.151 C439.8,141.151 438.204,139.465 438.204,136.453 L438.204,94.77 Z M457.359,107.028 L457.359,91.216 L474.556,108.714 L459.046,108.714 C457.841,108.714 457.359,108.232 457.359,107.028 Z" />
        </g>
        <g id="Black-S">
            <path d="M680.339,131.447 L683.062,131.447 C688.995,131.447 692.157,128.375 692.157,122.472 L692.157,92.47 C695.073,92.001 696.645,89.814 696.645,86.571 L696.645,81.993 C696.645,78.319 694.627,76 690.922,76 L642.162,76 C638.638,76 636.439,78.319 636.439,81.993 L636.439,86.571 C636.439,86.705 636.442,86.836 636.447,86.966 C634.39,88.509 633.355,91.092 633.355,94.709 L633.355,136.543 C633.355,142.838 636.457,146 642.692,146 L671.002,146 C677.237,146 680.339,142.808 680.339,136.543 L680.339,131.447 Z M665.255,92.565 L687.308,92.565 L687.308,122.713 C687.308,125.424 685.803,126.899 683.122,126.899 L680.339,126.899 L680.339,113.021 C680.339,109.166 679.887,107.479 677.478,105.01 L665.255,92.565 Z M641.288,85.311 L641.288,82.686 C641.288,81.18 641.891,80.548 643.396,80.548 L689.718,80.548 C691.224,80.548 691.796,81.18 691.796,82.686 L691.796,85.879 C691.796,87.385 691.224,88.017 689.718,88.017 L660.788,88.017 C658.541,85.75 656.65,85.252 653.323,85.252 L642.692,85.252 C642.205,85.252 641.737,85.272 641.288,85.311 Z M661.102,88.336 L661.112,88.336 L661.112,88.346 L661.102,88.336 Z M638.204,94.77 C638.204,91.818 639.8,90.101 642.933,90.101 L652.811,90.101 L652.811,107.57 C652.811,111.364 654.739,113.262 658.473,113.262 L675.49,113.262 L675.49,136.453 C675.49,139.465 673.864,141.151 670.762,141.151 L642.902,141.151 C639.8,141.151 638.204,139.465 638.204,136.453 L638.204,94.77 Z M657.359,107.028 L657.359,91.216 L674.557,108.714 L659.046,108.714 C657.841,108.714 657.359,108.232 657.359,107.028 Z" />
        </g>
    </g>
</svg>